<svg width="64" height="70" viewBox="0 0 64 70" fill="none" xmlns="http://www.w3.org/2000/svg">
<path d="M29.5404 1.60889L29.0166 1L28.4929 1.60889C27.8551 2.35028 26.4576 3.29597 24.4761 4.31531C22.5217 5.32068 20.0805 6.35753 17.4382 7.30488C12.1411 9.20405 6.11608 10.7151 1.66081 10.9169L1 10.9468L1.00336 11.6037C1.03294 17.3888 1.7241 26.6832 3.70277 35.802C5.6741 44.8869 8.95327 53.9452 14.2547 59.1163L14.3 59.1605L29.0166 69L37.5 63.5C37.5848 62.8405 36.8959 62.3845 36.2255 62.7028L29.0166 67.3507L15.1753 58.0965C10.2072 53.2172 7.00649 44.5324 5.04956 35.5138C3.16654 26.8359 2.46264 17.9847 2.38701 12.2451C6.95286 11.9258 12.8007 10.4221 17.9061 8.59162C20.5904 7.62919 23.0895 6.56933 25.1098 5.53002C26.742 4.6904 28.1181 3.83629 29.0166 3.02714C29.9152 3.83629 31.2913 4.6904 32.9235 5.53002C34.9438 6.56932 37.4429 7.62918 40.1272 8.5916C45.2326 10.4221 51.0804 11.9258 55.6463 12.2451C55.5807 17.22 55.5542 22.0181 54.1859 29.5294C54.1859 30.0916 55.0152 30.3196 55.5 30C56.9768 21.9863 57.0039 16.6938 57.0299 11.6037L57.0333 10.9468L56.3725 10.9169C51.9172 10.7151 45.8922 9.20403 40.5951 7.30486C37.9528 6.35752 35.5116 5.32067 33.5572 4.3153C31.5757 3.29597 30.1782 2.35028 29.5404 1.60889Z" stroke="#921717" stroke-width="2" stroke-linecap="round" stroke-linejoin="round"/>
<path d="M48.7637 38.7983C48.7637 38.4205 48.4553 38.1142 48.0749 38.1142C47.6944 38.1142 47.386 38.4205 47.386 38.7983V38.5344C47.386 38.9121 47.6944 39.2184 48.0749 39.2184C48.4553 39.2184 48.7637 38.9121 48.7637 38.5344V38.7983Z" stroke="#921717" stroke-width="2" stroke-linecap="round" stroke-linejoin="round"/>
<path d="M54.8282 40.8881C54.5592 40.621 54.3514 40.6959 54.0823 40.963L48.0749 46.9706L45.5 44.5C45.231 44.2329 44.9705 44.1673 44.7015 44.4344C44.4324 44.7016 44.7264 45.0831 44.9954 45.3502L47.5878 47.9103C47.8568 48.1775 48.293 48.1775 48.562 47.9103L54.8282 41.7021C55.0972 41.4349 55.0972 41.1552 54.8282 40.8881Z" stroke="#921717" stroke-width="2" stroke-linecap="round" stroke-linejoin="round"/>
<path d="M39.1348 46.9706C38.7544 46.9706 38.4459 47.2769 38.4459 47.6547C38.4459 48.0324 38.7544 48.3387 39.1348 48.3387H38.8902C39.2706 48.3387 39.579 48.0324 39.579 47.6547C39.579 47.2769 39.2706 46.9706 38.8902 46.9706H39.1348Z" stroke="#921717" stroke-width="2" stroke-linecap="round" stroke-linejoin="round"/>
<path d="M57.2596 46.9706C56.8791 46.9706 56.5707 47.2769 56.5707 47.6547C56.5707 48.0324 56.8791 48.3387 57.2596 48.3387H57.015C57.3954 48.3387 57.7038 48.0324 57.7038 47.6547C57.7038 47.2769 57.3954 46.9706 57.015 46.9706H57.2596Z" stroke="#921717" stroke-width="2" stroke-linecap="round" stroke-linejoin="round"/>
<path d="M47.386 56.775V56.5111C47.386 56.8888 47.6944 57.1951 48.0749 57.1951C48.4553 57.1951 48.7637 56.8888 48.7637 56.5111V56.775C48.7637 56.3972 48.4553 56.091 48.0749 56.091C47.6944 56.091 47.386 56.3972 47.386 56.775Z" stroke="#921717" stroke-width="2" stroke-linecap="round" stroke-linejoin="round"/>
<path d="M42.1191 40.7873C41.85 40.5201 41.4139 40.5201 41.1449 40.7873C40.8759 41.0544 40.8759 41.4875 41.1449 41.7546L41.0932 41.6893C41.3623 41.9565 41.7984 41.9565 42.0674 41.6893C42.3364 41.4222 42.3364 40.9891 42.0674 40.722L42.1191 40.7873Z" stroke="#921717" stroke-width="2" stroke-linecap="round" stroke-linejoin="round"/>
<path d="M55.0565 53.62C54.7875 53.3529 54.3514 53.3529 54.0823 53.62C53.8133 53.8872 53.8133 54.3203 54.0823 54.5874L54.0307 54.5221C54.2997 54.7892 54.7359 54.7892 55.0049 54.5221C55.2739 54.255 55.2739 53.8219 55.0049 53.5547L55.0565 53.62Z" stroke="#921717" stroke-width="2" stroke-linecap="round" stroke-linejoin="round"/>
<path d="M42.0674 54.5874C42.3364 54.3203 42.3364 53.8872 42.0674 53.62C41.7984 53.3529 41.3623 53.3529 41.0932 53.62L41.1449 53.5547C40.8759 53.8219 40.8759 54.255 41.1449 54.5221C41.4139 54.7892 41.85 54.7892 42.1191 54.5221L42.0674 54.5874Z" stroke="#921717" stroke-width="2" stroke-linecap="round" stroke-linejoin="round"/>
<path fill-rule="evenodd" clip-rule="evenodd" d="M48.0749 32.8342C43.1425 32.8342 39.3927 34.6776 36.8828 37.4814C34.3843 40.2726 33.1498 43.9748 33.1498 47.6547C33.1498 51.3345 34.3843 55.0368 36.8828 57.8279C39.3927 60.6317 43.1425 62.4752 48.0749 62.4752C53.0072 62.4752 56.7571 60.6317 59.2669 57.8279C61.7655 55.0368 63 51.3345 63 47.6547C63 43.9748 61.7655 40.2726 59.2669 37.4814C56.7571 34.6776 53.0072 32.8342 48.0749 32.8342ZM48.0749 61.1071C43.5164 61.1071 40.1481 59.4165 37.9125 56.9191C35.6657 54.409 34.5275 51.043 34.5275 47.6547C34.5275 44.2663 35.6657 40.9003 37.9125 38.3903C40.1481 35.8929 43.5164 34.2022 48.0749 34.2022C52.6334 34.2022 56.0016 35.8929 58.2372 38.3903C60.4841 40.9003 61.6223 44.2663 61.6223 47.6547C61.6223 51.043 60.4841 54.409 58.2372 56.9191C56.0016 59.4165 52.6334 61.1071 48.0749 61.1071Z" stroke="#921717" stroke-width="2" stroke-linecap="round" stroke-linejoin="round"/>
</svg>
