<svg width="96" height="72" viewBox="0 0 96 72" fill="none" xmlns="http://www.w3.org/2000/svg">
<path d="M62.2584 12.9861C62.2584 12.9861 88.3263 12.9861 91.1598 12.9861C93.9933 12.9861 93.9933 17.1532 93.9933 17.1532V65.8329C93.9933 65.8329 93.9933 70 91.1598 70H4.83347C2 70 2 65.8329 2 65.8329C2 65.8329 2.21553 48.6257 2.15232 31.9276M62.2584 12.9861C62.2584 9.38719 62.2584 2 54.5136 2H41.2908C33.5459 2 33.5459 9.38719 33.5459 12.9861M62.2584 12.9861H33.5459M33.5459 12.9861H4.83347C2 12.9861 2 17.1532 2 17.1532C2.08689 21.684 2.13284 26.7816 2.15232 31.9276M2.15232 31.9276C2.03858 33.948 3.32229 37.9889 9.36702 37.9889C15.4117 37.9889 32.4755 37.9889 41.2908 37.9889M41.2908 37.9889C41.2908 36.4735 41.2908 31.9276 44.3131 31.9276H53.2237C56.2461 31.9276 56.2461 36.4735 56.2461 37.9889M41.2908 37.9889H44.3131H53.2237H56.2461M41.2908 37.9889V45.1071H44.3131H53.2237H56.2461V37.9889M93.9933 31.9276C94.107 33.948 92.8233 37.9889 86.7786 37.9889H62.2584" stroke="#3E4585" stroke-width="3" stroke-linecap="round" stroke-linejoin="round"/>
</svg>
