<svg width="109" height="72" viewBox="0 0 109 72" fill="none" xmlns="http://www.w3.org/2000/svg">
<path d="M14.2093 35.6963C14.2093 42.9819 25.1977 42.9819 25.1977 35.6963M14.2093 35.6963C14.2093 28.4106 25.1977 28.4106 25.1977 35.6963M14.2093 35.6963H2M25.1977 35.6963H37.407M37.407 35.6963C37.407 42.9819 48.3953 42.9819 48.3953 35.6963M37.407 35.6963C37.407 28.4106 48.3953 28.4106 48.3953 35.6963M48.3953 35.6963H60.6047M60.6047 35.6963C60.6047 42.9819 71.593 42.9819 71.593 35.6963M60.6047 35.6963C60.6047 28.4106 71.593 28.4106 71.593 35.6963M71.593 35.6963H83.8023M83.8023 35.6963C83.8023 42.9819 94.7907 42.9819 94.7907 35.6963M83.8023 35.6963C83.8023 28.4106 94.7907 28.4106 94.7907 35.6963M94.7907 35.6963H107M20.0087 23.2499V12.9284M20.0087 12.9284V2L27.3343 7.46422L20.0087 12.9284ZM66.0988 48.7499V59.0713M66.0988 59.0713V70L73.4244 64.5357L66.0988 59.0713ZM42.9412 12.9284C40.1808 12.9462 37.407 11.1248 37.407 7.46429C37.407 0.178651 48.3953 0.178663 48.3953 7.46429C48.3953 11.0894 45.6749 12.9108 42.9412 12.9284ZM42.9412 12.9284V23.2499M89.3366 14.4463C86.5762 14.4641 83.8023 12.6427 83.8023 8.98214C83.8023 1.69651 94.7907 1.69652 94.7907 8.98214C94.7907 12.6073 92.0702 14.4287 89.3366 14.4463ZM89.3366 14.4463V16.5714M89.3366 20.5179V20.8214M89.3366 24.7679V25.0714" stroke="#B37821" stroke-width="3" stroke-linecap="round" stroke-linejoin="round"/>
</svg>
